<?xml version="1.0" standalone="no"?>
<!DOCTYPE svg PUBLIC "-//W3C//DTD SVG 20010904//EN"
 "http://www.w3.org/TR/2001/REC-SVG-20010904/DTD/svg10.dtd">
<svg version="1.0" xmlns="http://www.w3.org/2000/svg"
 width="700.000000pt" height="700.000000pt" viewBox="0 0 700.000000 700.000000"
 preserveAspectRatio="xMidYMid meet">
<metadata>
Created by potrace 1.11, written by Peter Selinger 2001-2013
</metadata>
<g transform="translate(0.000000,700.000000) scale(0.100000,-0.100000)"
fill="#000000" stroke="none">
<path d="M3196 6789 c-813 -72 -1603 -470 -2142 -1080 -462 -523 -735 -1128
-825 -1829 -19 -141 -19 -639 0 -780 53 -412 164 -771 350 -1135 218 -425 506
-777 881 -1076 704 -562 1609 -805 2510 -673 1275 186 2346 1149 2680 2409 82
310 105 497 105 865 0 366 -21 541 -100 845 -352 1351 -1510 2334 -2890 2454
-136 12 -435 12 -569 0z m1284 -959 c247 -82 382 -233 421 -470 29 -175 -49
-333 -208 -417 -110 -59 -179 -71 -503 -88 -426 -21 -705 -56 -985 -122 -341
-79 -432 -228 -234 -380 72 -55 213 -128 649 -336 731 -348 919 -440 915 -447
-3 -4 -22 -11 -42 -15 -190 -35 -958 -238 -1193 -314 -467 -153 -810 -423
-810 -639 0 -29 7 -66 15 -81 43 -84 239 -182 470 -236 266 -62 499 -83 1050
-95 793 -17 951 -33 1161 -117 110 -44 158 -127 114 -198 -150 -243 -1026
-501 -2085 -614 -345 -37 -712 -52 -783 -32 -16 4 66 26 255 69 779 177 1515
377 1621 442 39 24 40 37 5 51 -32 13 -511 5 -683 -11 -58 -5 -193 -9 -300 -9
-358 -1 -583 40 -1015 184 -368 123 -576 231 -734 380 -140 133 -195 243 -194
390 0 108 21 170 95 280 126 190 455 400 829 530 314 109 615 158 985 159
l211 1 -161 55 c-190 66 -298 113 -530 230 -307 155 -484 278 -661 461 -151
156 -215 260 -215 348 0 46 29 116 65 159 114 132 303 179 850 212 377 22
1010 96 1168 136 81 20 157 62 177 97 22 39 0 75 -70 109 -88 44 -159 50 -669
55 -261 3 -468 9 -460 13 52 28 884 245 1129 294 14 2 77 3 140 1 98 -2 130
-8 210 -35z"/>
</g>
</svg>
